<svg width="148" height="144" viewBox="0 0 148 144" fill="none" xmlns="http://www.w3.org/2000/svg">
<path d="M77.1969 115.835L110.348 136.883C114.623 139.58 119.885 135.568 118.635 130.635L109.032 92.8799C108.772 91.8334 108.814 90.7348 109.151 89.7107C109.489 88.6867 110.109 87.7788 110.94 87.0917L140.67 62.2945C144.551 59.0715 142.577 52.5597 137.513 52.2309L98.7054 49.7314C97.6465 49.6698 96.6285 49.3011 95.7758 48.6703C94.9231 48.0396 94.2726 47.174 93.9038 46.1796L79.4333 9.74016C79.0502 8.68712 78.3524 7.77745 77.4346 7.13465C76.5168 6.49184 75.4234 6.14703 74.3028 6.14703C73.1823 6.14703 72.0889 6.49184 71.171 7.13465C70.2532 7.77745 69.5554 8.68712 69.1724 9.74016L54.7018 46.1796C54.333 47.174 53.6825 48.0396 52.8298 48.6703C51.9771 49.3011 50.9591 49.6698 49.9003 49.7314L11.0929 52.2309C6.02826 52.5597 4.05501 59.0715 7.93574 62.2945L37.6661 87.0917C38.4971 87.7788 39.117 88.6867 39.4545 89.7107C39.7919 90.7348 39.8332 91.8334 39.5736 92.8799L30.6939 127.872C29.1811 133.792 35.4955 138.594 40.5602 135.371L71.4087 115.835C72.2738 115.285 73.2777 114.993 74.3028 114.993C75.328 114.993 76.3319 115.285 77.1969 115.835Z" fill="#EEC318" stroke="#EEC318" stroke-width="10.524" stroke-linecap="round" stroke-linejoin="round"/>
</svg>
