<svg width="172" height="172" viewBox="0 0 172 172" fill="none" xmlns="http://www.w3.org/2000/svg">
<path d="M23.5296 62.5442L41.8974 140.641C42.1812 141.817 42.8498 142.865 43.7971 143.618C44.7444 144.371 45.9161 144.786 47.1261 144.797H124.485C125.695 144.786 126.867 144.371 127.814 143.618C128.762 142.865 129.43 141.817 129.714 140.641L148.082 62.5442C148.287 61.6325 148.253 60.6834 147.983 59.7886C147.714 58.8938 147.218 58.0836 146.544 57.4365C145.87 56.7894 145.041 56.3271 144.136 56.0946C143.23 55.862 142.281 55.8669 141.378 56.1088L112.62 64.3542L87.8167 54.4329C87.1795 54.1674 86.496 54.0307 85.8057 54.0307C85.1153 54.0307 84.4318 54.1674 83.7946 54.4329L58.9914 64.3542L30.2332 56.1088C29.3306 55.8669 28.3808 55.862 27.4758 56.0946C26.5708 56.3271 25.7411 56.7894 25.067 57.4365C24.3929 58.0836 23.8972 58.8938 23.6279 59.7886C23.3586 60.6834 23.3247 61.6325 23.5296 62.5442V62.5442Z" stroke="white" stroke-width="10.7257" stroke-linecap="round" stroke-linejoin="round"/>
<path d="M58.9912 64.3542L69.7169 144.797" stroke="white" stroke-width="10.7257" stroke-linecap="round" stroke-linejoin="round"/>
<path d="M112.62 64.3542L101.895 144.797" stroke="white" stroke-width="10.7257" stroke-linecap="round" stroke-linejoin="round"/>
<path d="M144.797 56.3099C144.799 52.1444 143.722 48.0494 141.672 44.4234C139.622 40.7973 136.668 37.7637 133.098 35.6176C129.528 33.4715 125.463 32.286 121.299 32.1765C117.135 32.067 113.013 33.0371 109.335 34.9926C108.18 29.6101 105.213 24.7866 100.932 21.3265C96.6496 17.8665 91.3109 15.979 85.8058 15.979C80.3006 15.979 74.9619 17.8665 70.68 21.3265C66.3981 24.7866 63.432 29.6101 62.2763 34.9926C58.5983 33.0371 54.4768 32.067 50.3127 32.1765C46.1487 32.286 42.0839 33.4715 38.5138 35.6176C34.9437 37.7637 31.9899 40.7973 29.9397 44.4234C27.8896 48.0494 26.8129 52.1444 26.8145 56.3099" stroke="white" stroke-width="10.7257" stroke-linecap="round" stroke-linejoin="round"/>
</svg>
