<svg width="172" height="173" viewBox="0 0 172 173" fill="none" xmlns="http://www.w3.org/2000/svg">
<path d="M145.186 38.0092H27.2036" stroke="#FF6565" stroke-width="10.7257" stroke-linecap="round" stroke-linejoin="round"/>
<path d="M134.46 38.0092V139.903C134.46 141.326 133.895 142.69 132.89 143.695C131.884 144.701 130.52 145.266 129.098 145.266H43.292C41.8697 145.266 40.5057 144.701 39.4999 143.695C38.4942 142.69 37.9292 141.326 37.9292 139.903V38.0092" fill="#FFA6A6"/>
<path d="M134.46 38.0092V139.903C134.46 141.326 133.895 142.69 132.89 143.695C131.884 144.701 130.52 145.266 129.098 145.266H43.292C41.8697 145.266 40.5057 144.701 39.4999 143.695C38.4942 142.69 37.9292 141.326 37.9292 139.903V38.0092" stroke="#FF6565" stroke-width="10.7257" stroke-linecap="round" stroke-linejoin="round"/>
<path d="M113.009 38.0092V27.2836C113.009 24.4389 111.879 21.7108 109.868 19.6993C107.856 17.6879 105.128 16.5579 102.284 16.5579H70.1066C67.2619 16.5579 64.5338 17.6879 62.5223 19.6993C60.5109 21.7108 59.3809 24.4389 59.3809 27.2836V38.0092" fill="#FFA6A6"/>
<path d="M113.009 38.0092V27.2836C113.009 24.4389 111.879 21.7108 109.868 19.6993C107.856 17.6879 105.128 16.5579 102.284 16.5579H70.1066C67.2619 16.5579 64.5338 17.6879 62.5223 19.6993C60.5109 21.7108 59.3809 24.4389 59.3809 27.2836V38.0092" stroke="#FF6565" stroke-width="10.7257" stroke-linecap="round" stroke-linejoin="round"/>
<path d="M70.1064 70.1863V113.089" stroke="#FF6565" stroke-width="10.7257" stroke-linecap="round" stroke-linejoin="round"/>
<path d="M102.283 70.1863V113.089" stroke="#FF6565" stroke-width="10.7257" stroke-linecap="round" stroke-linejoin="round"/>
</svg>
