<svg width="184" height="184" viewBox="0 0 184 184" fill="none" xmlns="http://www.w3.org/2000/svg">
<path d="M128.998 28.6661H149.064C150.584 28.6661 152.043 29.2702 153.118 30.3454C154.193 31.4205 154.797 32.8788 154.797 34.3994V54.4657" stroke="#397DA7" stroke-width="11.4665" stroke-linecap="round" stroke-linejoin="round"/>
<path d="M128.998 154.797H149.064C150.584 154.797 152.043 154.193 153.118 153.118C154.193 152.043 154.797 150.585 154.797 149.064V128.998" stroke="#397DA7" stroke-width="11.4665" stroke-linecap="round" stroke-linejoin="round"/>
<path d="M54.4661 154.797H34.3997C32.8792 154.797 31.4209 154.193 30.3457 153.118C29.2705 152.043 28.6665 150.585 28.6665 149.064V128.998" stroke="#397DA7" stroke-width="11.4665" stroke-linecap="round" stroke-linejoin="round"/>
<path d="M54.4661 28.6661H34.3997C32.8792 28.6661 31.4209 29.2702 30.3457 30.3454C29.2705 31.4205 28.6665 32.8788 28.6665 34.3994V54.4657" stroke="#397DA7" stroke-width="11.4665" stroke-linecap="round" stroke-linejoin="round"/>
<path d="M91.7318 103.198C104.397 103.198 114.665 92.9307 114.665 80.2652C114.665 67.5997 104.397 57.3323 91.7318 57.3323C79.0663 57.3323 68.7988 67.5997 68.7988 80.2652C68.7988 92.9307 79.0663 103.198 91.7318 103.198Z" stroke="#397DA7" stroke-width="11.4665" stroke-linecap="round" stroke-linejoin="round"/>
<path d="M53.6772 126.131C57.3421 119.218 62.8211 113.434 69.5256 109.399C76.2301 105.365 83.9069 103.234 91.7316 103.234C99.5562 103.234 107.233 105.365 113.938 109.399C120.642 113.434 126.121 119.218 129.786 126.131" stroke="#397DA7" stroke-width="11.4665" stroke-linecap="round" stroke-linejoin="round"/>
</svg>
