<svg width="148" height="144" viewBox="0 0 148 144" fill="none" xmlns="http://www.w3.org/2000/svg">
<path d="M76.6271 115.835L109.778 136.883C114.053 139.58 119.315 135.568 118.065 130.635L108.462 92.8799C108.203 91.8334 108.244 90.7348 108.581 89.7107C108.919 88.6867 109.539 87.7788 110.37 87.0917L140.1 62.2945C143.981 59.0715 142.008 52.5597 136.943 52.2309L98.1356 49.7314C97.0767 49.6698 96.0587 49.3011 95.206 48.6703C94.3533 48.0396 93.7028 47.174 93.334 46.1796L78.8634 9.74016C78.4804 8.68712 77.7826 7.77745 76.8648 7.13465C75.9469 6.49184 74.8535 6.14703 73.733 6.14703C72.6124 6.14703 71.519 6.49184 70.6012 7.13465C69.6834 7.77745 68.9856 8.68712 68.6025 9.74016L54.132 46.1796C53.7632 47.174 53.1127 48.0396 52.26 48.6703C51.4073 49.3011 50.3893 49.6698 49.3304 49.7314L10.5231 52.2309C5.45844 52.5597 3.48518 59.0715 7.36592 62.2945L37.0963 87.0917C37.9272 87.7788 38.5472 88.6867 38.8846 89.7107C39.2221 90.7348 39.2634 91.8334 39.0037 92.8799L30.1241 127.872C28.6113 133.792 34.9257 138.594 39.9904 135.371L70.8389 115.835C71.7039 115.285 72.7079 114.993 73.733 114.993C74.7581 114.993 75.762 115.285 76.6271 115.835Z" fill="#1F4B7A" stroke="#1F4B7A" stroke-width="10.524" stroke-linecap="round" stroke-linejoin="round"/>
</svg>
