<svg width="988" height="267" viewBox="0 0 988 267" fill="none" xmlns="http://www.w3.org/2000/svg">
<path d="M19.0215 120.087C21.9504 120.087 24.2285 119.192 25.8557 117.402C27.4829 115.612 28.2151 113.171 28.2151 109.917V53.6975C28.2151 42.1444 31.4695 33.1948 38.0597 26.8487C44.6498 20.5026 53.8435 17.3296 65.722 17.3296V43.7716C62.2235 43.7716 59.5387 44.7479 57.586 46.7819C55.6334 48.8159 54.6571 51.5821 54.6571 55.1619V111.87C54.6571 121.633 51.5654 129.281 45.3821 134.65C39.1987 140.02 30.4119 142.705 19.1028 142.705V120.087H19.0215ZM38.141 239.361C31.5509 233.015 28.2965 223.984 28.2965 212.43V156.292C28.2965 153.119 27.4829 150.597 25.9371 148.807C24.3099 147.017 22.0318 146.122 19.1028 146.122V123.667C30.4119 123.667 39.1987 126.433 45.3821 132.047C51.5654 137.579 54.6571 145.553 54.6571 155.885V211.047C54.6571 214.709 55.6334 217.475 57.586 219.509C59.5387 221.543 62.3049 222.519 65.722 222.519V248.961C53.9248 248.88 44.6498 245.707 38.141 239.361Z" fill="white"/>
<path d="M97.3711 205.189H81.3433V43.4461H97.3711V205.189Z" fill="white"/>
<path d="M121.942 43.4461H136.993L188.25 176.225L185.565 179.154V43.4461H201.349V205.108H186.135L135.041 72.2475L137.726 69.3185V205.027H121.942V43.4461Z" fill="white"/>
<path d="M212.495 43.4461H291.007V58.335H212.495V43.4461ZM243.737 56.7078H259.765V205.189H243.737V56.7078Z" fill="white"/>
<path d="M302.154 43.3648H318.182V205.189H302.154V43.3648ZM311.998 121.877H341.939C346.739 121.877 350.888 120.982 354.305 119.192C357.723 117.402 360.407 114.799 362.197 111.382C363.987 107.964 364.882 103.815 364.882 99.0149V82.3361C364.882 77.2918 363.987 72.9797 362.197 69.3999C360.407 65.8201 357.723 63.0538 354.305 61.1826C350.888 59.3113 346.739 58.335 341.939 58.335H311.998V43.3648H340.8C349.261 43.3648 356.502 44.8292 362.523 47.6768C368.543 50.5244 373.1 54.7551 376.273 60.2062C379.446 65.7387 380.991 72.3289 380.991 80.058V98.9335C380.991 106.907 379.446 113.66 376.273 119.355C373.1 125.05 368.543 129.362 362.523 132.291C356.502 135.22 349.261 136.766 340.8 136.766H311.998V121.877ZM345.519 131.803L359.757 126.677L385.548 205.189H366.998L345.519 131.803Z" fill="white"/>
<path d="M423.461 202.098C417.44 198.925 412.884 194.287 409.711 188.185C406.538 182.083 404.992 174.761 404.992 166.137V82.4988C404.992 73.8747 406.538 66.5523 409.711 60.4503C412.884 54.3483 417.44 49.7108 423.461 46.5378C429.481 43.3648 436.723 41.7376 445.184 41.7376C453.645 41.7376 460.886 43.3648 466.907 46.5378C472.928 49.7108 477.484 54.3483 480.657 60.4503C483.83 66.5523 485.376 73.8747 485.376 82.4988V166.137C485.376 174.761 483.83 182.083 480.657 188.185C477.484 194.287 472.928 198.925 466.907 202.098C460.886 205.271 453.645 206.898 445.184 206.898C436.723 206.898 429.481 205.271 423.461 202.098ZM458.283 188.348C461.863 186.477 464.629 183.71 466.5 180.049C468.371 176.388 469.348 172.076 469.348 166.95V81.7666C469.348 76.6409 468.371 72.2475 466.5 68.6677C464.629 65.0065 461.863 62.2402 458.283 60.369C454.703 58.4977 450.31 57.5214 445.184 57.5214C440.058 57.5214 435.746 58.4977 432.085 60.369C428.505 62.2402 425.739 65.0065 423.868 68.6677C421.996 72.3289 421.02 76.6409 421.02 81.7666V166.95C421.02 172.076 421.996 176.469 423.868 180.049C425.739 183.71 428.505 186.477 432.085 188.348C435.665 190.219 440.058 191.196 445.184 191.196C450.31 191.196 454.622 190.219 458.283 188.348Z" fill="white"/>
<path d="M524.266 202.016C518.489 198.762 514.015 194.124 511.004 187.941C507.913 181.758 506.367 174.354 506.367 165.73V82.987C506.367 74.2815 507.913 66.8777 511.004 60.7758C514.096 54.5924 518.489 49.9549 524.266 46.7005C530.042 43.4461 537.039 41.9003 545.175 41.9003C553.311 41.9003 560.308 43.5275 566.166 46.7005C572.024 49.9549 576.417 54.6738 579.428 60.8571C582.438 67.0405 583.984 74.4442 583.984 83.1497V96.1673H556.078V83.1497C556.078 80.3835 555.671 78.024 554.857 75.99C554.044 73.956 552.823 72.4102 551.115 71.3525C549.406 70.2949 547.453 69.7253 545.175 69.7253C542.979 69.7253 541.026 70.2135 539.399 71.2712C537.772 72.3288 536.551 73.7933 535.656 75.8273C534.843 77.8613 534.354 80.2208 534.354 82.987V165.73C534.354 168.496 534.761 170.856 535.656 172.808C536.47 174.761 537.772 176.307 539.399 177.283C541.026 178.341 542.979 178.829 545.175 178.829C547.535 178.829 549.569 178.341 551.196 177.283C552.823 176.225 554.044 174.761 554.857 172.808C555.671 170.856 556.078 168.415 556.078 165.649V152.631H583.984V165.649C583.984 174.354 582.438 181.758 579.428 187.941C576.417 194.124 571.943 198.843 566.166 202.098C560.308 205.352 553.393 206.898 545.175 206.898C537.039 206.898 530.042 205.271 524.266 202.016Z" fill="white"/>
<path d="M620.677 202.342C614.494 199.332 609.775 195.019 606.521 189.324C603.266 183.629 601.639 176.795 601.639 168.822V79.814C601.639 71.8407 603.266 64.9251 606.521 59.2299C609.775 53.5347 614.494 49.2227 620.677 46.2123C626.861 43.2834 634.264 41.7376 642.97 41.7376C651.675 41.7376 659.079 43.202 665.263 46.2123C671.446 49.1413 676.165 53.5347 679.419 59.2299C682.674 64.9251 684.301 71.7593 684.301 79.814V168.822C684.301 176.795 682.674 183.71 679.419 189.324C676.165 195.019 671.446 199.332 665.263 202.342C659.079 205.352 651.675 206.817 642.97 206.817C634.264 206.817 626.861 205.352 620.677 202.342ZM650.211 177.608C652.245 176.469 653.791 174.924 654.849 172.808C655.906 170.693 656.394 168.171 656.394 165.242V83.1497C656.394 80.2208 655.906 77.78 654.849 75.6646C653.791 73.5492 652.245 72.0034 650.211 70.8644C648.177 69.7253 645.736 69.1558 642.889 69.1558C640.041 69.1558 637.682 69.7253 635.648 70.8644C633.614 72.0034 632.149 73.5492 631.091 75.6646C630.034 77.78 629.546 80.2208 629.546 83.1497V165.242C629.546 168.171 630.034 170.693 631.091 172.808C632.149 174.924 633.614 176.469 635.648 177.608C637.682 178.747 640.041 179.317 642.889 179.317C645.736 179.317 648.177 178.747 650.211 177.608Z" fill="white"/>
<path d="M784.862 43.4461H810.653V205.189H786.082V92.262L787.791 99.4217L764.359 176.632H750.528L727.096 101.7L729.293 92.3434V205.271H704.153V43.4461H730.595L757.362 131.315L784.862 43.4461Z" fill="white"/>
<path d="M830.504 43.4461H858.085V205.189H830.504V43.4461ZM843.359 116.019H871.917C874.113 116.019 876.066 115.531 877.693 114.473C879.32 113.416 880.622 111.951 881.436 109.917C882.249 107.883 882.737 105.524 882.737 102.757V83.7192C882.737 80.7903 882.331 78.3495 881.436 76.2341C880.622 74.1188 879.32 72.5729 877.693 71.5153C876.066 70.4576 874.113 69.8881 871.835 69.8881H843.278V43.4461H872.649C880.622 43.4461 887.538 44.8292 893.233 47.6768C898.928 50.5244 903.24 54.5924 906.25 60.0435C909.179 65.4946 910.725 72.0034 910.725 79.6512V106.907C910.725 114.392 909.261 120.819 906.25 126.108C903.24 131.396 898.928 135.464 893.151 138.23C887.456 140.997 880.622 142.38 872.649 142.38H843.278V116.019H843.359Z" fill="white"/>
<path d="M942.7 134.488C936.435 129.118 933.343 121.552 933.343 111.87V55.1619C933.343 51.5007 932.367 48.7345 930.414 46.7819C928.462 44.8292 925.695 43.8529 922.278 43.8529V17.3296C934.238 17.3296 943.432 20.5026 949.941 26.8487C956.449 33.1948 959.704 42.1444 959.704 53.6975V109.836C959.704 113.009 960.517 115.531 962.145 117.321C963.772 119.111 966.05 120.006 968.897 120.006V142.461C957.67 142.542 948.964 139.857 942.7 134.488ZM922.278 222.438C925.777 222.438 928.462 221.461 930.414 219.427C932.367 217.393 933.343 214.627 933.343 210.966V155.804C933.343 145.553 936.435 137.661 942.618 132.128C948.802 126.596 957.588 123.748 968.897 123.748V146.204C965.968 146.204 963.772 147.099 962.145 148.888C960.517 150.678 959.704 153.119 959.704 156.374V212.43C959.704 224.065 956.449 233.096 949.941 239.442C943.432 245.788 934.157 248.961 922.278 248.961V222.438Z" fill="white"/>
</svg>
